<?xml version="1.0" standalone="no"?>
<!DOCTYPE svg PUBLIC "-//W3C//DTD SVG 20010904//EN"
 "http://www.w3.org/TR/2001/REC-SVG-20010904/DTD/svg10.dtd">
<svg version="1.0" xmlns="http://www.w3.org/2000/svg"
 width="780.000000pt" height="142.000000pt" viewBox="0 0 780.000000 142.000000"
 preserveAspectRatio="xMidYMid meet">

<g transform="translate(0.000000,142.000000) scale(0.100000,-0.100000)"
fill="#000000" stroke="none">
<path d="M3475 1353 c-77 -17 -147 -48 -169 -74 -14 -16 -34 -29 -45 -29 -26
0 -58 -31 -67 -65 -8 -34 13 -118 48 -187 28 -57 45 -77 33 -38 -10 32 0 23
37 -32 19 -29 59 -81 88 -116 51 -61 53 -62 69 -43 17 20 19 18 97 -60 67 -68
78 -84 76 -109 -3 -26 4 -35 65 -79 72 -54 223 -137 223 -124 0 4 -9 22 -20
38 -26 39 -25 47 4 34 14 -7 31 -29 40 -54 14 -35 23 -44 49 -50 28 -6 30 -8
12 -15 -15 -7 -10 -9 22 -9 23 -1 53 4 66 10 23 11 47 46 47 71 0 6 11 21 24
33 28 26 54 104 62 185 5 46 3 53 -8 39 -21 -26 -54 -39 -96 -39 -36 0 -39 -2
-34 -25 6 -33 -4 -32 -22 3 -10 19 -38 38 -96 64 -72 33 -79 34 -56 13 14 -13
26 -27 26 -30 0 -12 -22 -2 -96 46 -127 83 -256 217 -327 340 -24 41 -38 79
-19 54 4 -5 18 -19 31 -30 22 -19 22 -17 -7 41 -19 37 -40 64 -56 72 -35 16
-36 45 -1 32 23 -9 24 -8 18 20 -7 38 3 76 27 100 20 20 20 20 -2 19 -13 -1
-32 -3 -43 -6z m-50 -133 c6 -10 -134 -85 -143 -75 -9 8 7 21 72 54 66 35 63
34 71 21z m75 -195 c0 -1 -27 -23 -59 -48 l-60 -46 -19 31 c-11 17 -41 42 -68
57 -43 24 -77 62 -43 49 56 -21 61 -21 54 4 -4 12 -8 27 -9 32 0 5 28 26 63
47 l65 38 38 -81 c21 -44 38 -82 38 -83z m220 -242 c0 -7 -58 36 -66 49 -4 7
9 -1 29 -16 20 -16 37 -30 37 -33z"/>
<path d="M3655 1326 c-17 -26 -14 -56 12 -118 9 -21 20 -35 26 -31 6 4 8 0 4
-11 -4 -9 -3 -15 2 -11 5 3 20 -9 32 -27 13 -18 64 -75 113 -127 54 -55 79
-87 61 -76 l-30 17 25 -20 c13 -11 28 -18 32 -16 5 3 22 -5 39 -17 46 -32 139
-68 177 -69 37 0 39 6 12 40 -21 27 -25 40 -12 40 4 0 16 -16 26 -35 10 -19
24 -32 30 -29 6 3 0 -4 -13 -15 -17 -16 -19 -21 -7 -21 29 0 46 41 35 85 -6
22 -14 57 -20 78 -5 22 -19 57 -30 78 l-20 40 -29 -25 c-52 -43 -124 -45 -183
-4 -33 23 -61 74 -53 95 6 13 -1 15 -39 10 -44 -7 -45 -6 -65 33 -27 53 -25
60 13 61 30 1 29 2 -13 12 -49 13 -115 46 -107 53 3 3 20 -2 38 -11 18 -10 68
-26 112 -36 76 -18 80 -19 93 -2 11 16 9 20 -19 34 -42 22 -150 49 -193 49
-24 0 -38 -6 -49 -24z m241 -288 l29 -33 -32 29 c-31 28 -38 36 -30 36 2 0 16
-15 33 -32z"/>
<path d="M1906 1305 c-3 -8 -16 -21 -30 -30 -24 -16 -30 -16 -106 9 -97 31
-125 32 -166 7 -30 -18 -74 -91 -74 -123 0 -21 80 -45 91 -26 5 7 9 16 9 19 0
3 11 11 25 17 20 9 39 7 102 -14 126 -42 193 -17 227 82 16 48 16 48 -36 62
-29 8 -38 7 -42 -3z"/>
<path d="M5420 1089 c-30 -5 -84 -24 -120 -42 l-65 -32 3 -40 c2 -22 7 -75 10
-118 l7 -78 36 53 c143 213 470 88 446 -172 -12 -137 -111 -230 -244 -230 -97
1 -184 56 -223 142 l-17 38 -6 -92 c-4 -51 -10 -109 -13 -129 l-6 -37 63 -31
c268 -130 568 14 621 297 41 221 -114 434 -342 471 -73 12 -74 12 -150 0z"/>
<path d="M5990 685 l0 -395 85 0 85 0 2 255 3 255 109 -165 c59 -91 111 -165
115 -165 3 1 53 75 111 165 58 90 108 164 113 164 4 1 7 -116 7 -259 l0 -260
85 0 85 0 0 400 0 400 -97 0 -98 -1 -100 -164 c-55 -90 -102 -164 -105 -165
-3 0 -50 73 -106 163 l-101 162 -96 3 -97 3 0 -396z"/>
<path d="M40 670 l0 -400 90 0 90 0 0 119 0 119 118 5 c135 5 191 22 251 74
66 56 86 103 86 203 0 72 -4 93 -26 135 -14 28 -44 64 -67 82 -71 54 -121 63
-344 63 l-198 0 0 -400z m431 202 c23 -26 29 -41 29 -80 0 -92 -45 -122 -185
-122 l-95 0 0 121 0 121 111 -4 111 -3 29 -33z"/>
<path d="M720 670 l0 -400 305 0 305 0 0 75 0 75 -217 2 -218 3 0 85 0 85 188
3 187 2 0 75 0 75 -187 2 -188 3 0 80 0 80 215 5 215 5 0 73 0 72 -302 0 -303
0 0 -400z"/>
<path d="M1400 670 l0 -400 85 0 85 0 2 257 3 256 195 -256 195 -256 74 -1 74
0 -8 113 c-12 146 -12 454 -1 585 l9 102 -87 0 -87 0 3 -245 c2 -135 0 -245
-3 -245 -4 0 -89 110 -190 244 l-184 245 -82 0 -83 1 0 -400z"/>
<path d="M3056 1039 c-27 -43 -54 -130 -60 -199 l-6 -65 22 58 c12 31 26 57
31 57 5 0 7 -6 5 -12 -22 -76 -44 -138 -50 -138 -3 0 -9 8 -11 18 -3 9 -5 -1
-6 -24 -1 -48 20 -122 44 -155 l17 -24 -6 25 c-6 25 -6 25 16 -4 13 -16 31
-38 42 -50 18 -21 18 -21 4 4 -77 131 -81 140 -75 190 3 26 13 65 22 86 l16
39 34 -63 c18 -35 46 -79 61 -99 26 -34 26 -38 16 -82 -31 -124 -31 -123 39
-196 34 -36 98 -93 140 -127 43 -33 76 -65 73 -69 -3 -5 1 -6 9 -3 8 3 18 0
23 -7 4 -8 3 -10 -4 -5 -7 4 -12 4 -12 1 0 -13 108 -53 186 -70 79 -17 82 -17
158 4 83 23 145 51 164 74 10 12 4 15 -40 20 -29 3 -75 15 -102 26 l-48 21 6
-25 c4 -14 3 -25 -2 -25 -16 0 -40 25 -44 45 -2 12 -39 41 -98 78 -61 38 -87
50 -71 34 39 -42 19 -48 -39 -12 -57 36 -76 43 -64 24 17 -28 -42 18 -107 83
-48 48 -67 73 -59 78 9 5 0 24 -29 62 -22 30 -41 58 -41 61 0 14 25 6 48 -15
14 -13 2 9 -25 47 -28 39 -56 80 -62 93 -7 13 -21 22 -36 22 -14 0 -29 8 -35
19 -15 28 -13 33 10 26 24 -8 26 5 4 47 -9 17 -21 58 -28 91 l-13 61 -17 -25z"/>
<path d="M6917 673 c-3 -5 -4 -98 -4 -208 l2 -200 49 0 49 0 -1 118 c0 64 3
117 6 117 4 0 29 -35 55 -77 l48 -77 52 79 52 79 3 -122 3 -122 49 0 50 0 0
210 0 210 -52 0 -53 0 -37 -63 c-67 -112 -58 -110 -116 -18 l-52 81 -49 0
c-27 0 -52 -3 -54 -7z m147 -88 c27 -42 52 -78 57 -81 4 -2 31 32 59 76 l52
80 44 0 44 0 0 -190 -1 -190 -35 0 -34 0 -2 108 c-1 59 -2 119 -1 135 1 15 0
27 -2 27 -1 0 -28 -39 -61 -86 l-58 -85 -28 33 c-15 18 -39 54 -55 80 -15 26
-31 48 -35 48 -5 0 -8 -58 -8 -130 l0 -130 -35 0 -35 0 0 190 0 190 43 0 c41
0 43 -1 91 -75z"/>
<path d="M6945 360 c3 -5 13 -10 21 -10 8 0 14 5 14 10 0 6 -9 10 -21 10 -11
0 -17 -4 -14 -10z"/>
<path d="M7260 360 c0 -5 9 -10 20 -10 11 0 20 5 20 10 0 6 -9 10 -20 10 -11
0 -20 -4 -20 -10z"/>
<path d="M7350 674 c0 -3 29 -49 65 -101 36 -52 65 -96 65 -98 0 -2 -24 -39
-54 -82 -29 -43 -61 -90 -71 -105 l-17 -28 56 0 56 0 42 65 c24 35 46 65 49
65 3 0 24 -29 47 -65 l41 -65 56 0 c30 0 55 3 55 8 0 4 -31 52 -69 107 l-69
99 69 103 69 103 -57 0 -58 0 -39 -60 c-21 -33 -40 -60 -42 -60 -2 0 -22 27
-44 60 l-41 60 -54 0 c-30 0 -55 -3 -55 -6z m146 -74 c22 -33 42 -60 46 -60 4
0 26 27 48 60 38 56 43 60 81 60 l40 0 -61 -90 c-33 -49 -60 -92 -60 -95 0 -9
111 -174 121 -181 21 -12 6 -19 -35 -16 -42 4 -46 6 -87 73 -24 38 -46 69 -49
69 -3 0 -25 -32 -49 -70 -42 -68 -44 -70 -83 -70 -40 0 -40 0 -25 23 8 12 37
56 65 97 l49 75 -47 70 c-26 38 -52 80 -59 93 -11 21 -10 22 28 22 37 0 41 -3
77 -60z"/>
<path d="M7435 360 c-3 -6 5 -10 19 -10 14 0 28 5 31 10 3 6 -5 10 -19 10 -14
0 -28 -4 -31 -10z"/>
<path d="M7595 360 c3 -5 17 -10 31 -10 14 0 22 4 19 10 -3 6 -17 10 -31 10
-14 0 -22 -4 -19 -10z"/>
<path d="M3555 604 c56 -49 77 -66 64 -49 -9 11 -14 26 -11 34 3 8 -1 12 -9 9
-8 -3 -23 -1 -34 5 -11 5 -15 5 -10 1z"/>
<path d="M3301 254 c7 -8 21 -20 31 -25 17 -9 18 -8 9 9 -6 11 -20 22 -31 25
-18 5 -19 3 -9 -9z"/>
</g>
</svg>
